<svg width="30" height="30" viewBox="0 0 30 30" fill="none" xmlns="http://www.w3.org/2000/svg">
<path d="M9.90016 22.0833L15.0002 16.9833L20.1002 22.0833L22.0835 20.0999L16.9835 14.9999L22.0835 9.89992L20.1002 7.91659L15.0002 13.0166L9.90016 7.91659L7.91683 9.89992L13.0168 14.9999L7.91683 20.0999L9.90016 22.0833ZM15.0002 29.1666C13.0404 29.1666 11.1988 28.7947 9.47516 28.051C7.75155 27.3072 6.25225 26.2978 4.97725 25.0228C3.70225 23.7478 2.69287 22.2485 1.94912 20.5249C1.20537 18.8013 0.833496 16.9596 0.833496 14.9999C0.833496 13.0402 1.20537 11.1985 1.94912 9.47492C2.69287 7.75131 3.70225 6.252 4.97725 4.977C6.25225 3.702 7.75155 2.69263 9.47516 1.94888C11.1988 1.20513 13.0404 0.833252 15.0002 0.833252C16.9599 0.833252 18.8016 1.20513 20.5252 1.94888C22.2488 2.69263 23.7481 3.702 25.0231 4.977C26.2981 6.252 27.3075 7.75131 28.0512 9.47492C28.795 11.1985 29.1668 13.0402 29.1668 14.9999C29.1668 16.9596 28.795 18.8013 28.0512 20.5249C27.3075 22.2485 26.2981 23.7478 25.0231 25.0228C23.7481 26.2978 22.2488 27.3072 20.5252 28.051C18.8016 28.7947 16.9599 29.1666 15.0002 29.1666ZM15.0002 26.3333C18.1641 26.3333 20.8439 25.2353 23.0397 23.0395C25.2356 20.8437 26.3335 18.1638 26.3335 14.9999C26.3335 11.836 25.2356 9.15617 23.0397 6.96034C20.8439 4.7645 18.1641 3.66659 15.0002 3.66659C11.8363 3.66659 9.15641 4.7645 6.96058 6.96034C4.76475 9.15617 3.66683 11.836 3.66683 14.9999C3.66683 18.1638 4.76475 20.8437 6.96058 23.0395C9.15641 25.2353 11.8363 26.3333 15.0002 26.3333Z" fill="#F5F5DC"/>
</svg>
