<svg width="30" height="30" viewBox="0 0 30 30" fill="none" xmlns="http://www.w3.org/2000/svg">
<path fill-rule="evenodd" clip-rule="evenodd" d="M27 1.5C27 0.671574 27.6716 0 28.5 0C29.3284 0 30 0.671574 30 1.5L30 28.5C30 29.3284 29.3284 30 28.5 30C27.6716 30 27 29.3284 27 28.5L27 1.5ZM0 15L0.00600052 14.877L0.0303593 14.6989L0.0746078 14.5318L0.140511 14.3652L0.218992 14.2189L0.29447 14.1073L0.439341 13.9393L6.43934 7.93934C7.02513 7.35355 7.97487 7.35355 8.56066 7.93934C9.10139 8.48007 9.14298 9.33091 8.68544 9.91935L8.56066 10.0607L5.1225 13.5L22.5 13.5C23.3284 13.5 24 14.1716 24 15C24 15.8284 23.3284 16.5 22.5 16.5L5.1225 16.5L8.56066 19.9393C9.10139 20.4801 9.14298 21.3309 8.68544 21.9193L8.56066 22.0607C8.01993 22.6014 7.16909 22.643 6.58065 22.1854L6.43934 22.0607L0.439341 16.0607L0.377243 15.9947L0.294502 15.893L0.187006 15.7261L0.14048 15.6346L0.0898285 15.5125L0.0537682 15.399L0.010252 15.1762L0 15Z" fill="black"/>
</svg>
