<svg width="142" height="78" viewBox="0 0 142 78" fill="none" xmlns="http://www.w3.org/2000/svg">
<path d="M96.085 64.877H98.4932V74H96.085V64.877ZM90.583 64.877H92.9912V74H90.583V64.877ZM91.875 64.877H97.4736V67.1973H91.875V64.877ZM104.628 74.1318C103.796 74.1318 103.084 73.9766 102.492 73.666C101.906 73.3555 101.458 72.9043 101.147 72.3125C100.843 71.7148 100.69 70.9971 100.69 70.1592V68.6738C100.69 67.8477 100.843 67.1416 101.147 66.5557C101.458 65.9639 101.906 65.5156 102.492 65.2109C103.084 64.9004 103.796 64.7451 104.628 64.7451C105.46 64.7451 106.169 64.9004 106.755 65.2109C107.347 65.5156 107.795 65.9639 108.1 66.5557C108.41 67.1416 108.565 67.8477 108.565 68.6738V70.1855C108.565 71.0176 108.41 71.7295 108.1 72.3213C107.795 72.9072 107.347 73.3555 106.755 73.666C106.169 73.9766 105.46 74.1318 104.628 74.1318ZM104.619 71.8115C105.105 71.8115 105.483 71.6709 105.753 71.3896C106.022 71.1025 106.157 70.7012 106.157 70.1855V68.6738C106.157 68.1641 106.022 67.7686 105.753 67.4873C105.483 67.2061 105.105 67.0654 104.619 67.0654C104.139 67.0654 103.764 67.2061 103.494 67.4873C103.23 67.7686 103.099 68.1641 103.099 68.6738V70.1855C103.099 70.7012 103.23 71.1025 103.494 71.3896C103.758 71.6709 104.133 71.8115 104.619 71.8115ZM110.631 64.877H113.039V74H110.631V64.877ZM112.477 60.5967H114.885V63.0049H112.477V60.5967ZM108.785 60.5967H111.193V63.0049H108.785V60.5967ZM119.139 74.1318C118.271 74.1318 117.527 73.9678 116.906 73.6396C116.291 73.3057 115.822 72.8223 115.5 72.1895C115.178 71.5566 115.017 70.7949 115.017 69.9043V68.9287C115.017 68.0439 115.178 67.291 115.5 66.6699C115.822 66.043 116.291 65.5654 116.906 65.2373C117.527 64.9092 118.271 64.7451 119.139 64.7451C119.637 64.7451 120.105 64.8037 120.545 64.9209C120.99 65.0322 121.389 65.1963 121.74 65.4131C122.092 65.6299 122.385 65.8936 122.619 66.2041L121.063 67.7158C120.841 67.5107 120.58 67.3525 120.281 67.2412C119.982 67.124 119.669 67.0654 119.341 67.0654C118.731 67.0654 118.26 67.2295 117.926 67.5576C117.592 67.8799 117.425 68.3369 117.425 68.9287V69.9043C117.425 70.5137 117.592 70.9854 117.926 71.3193C118.26 71.6475 118.731 71.8115 119.341 71.8115C119.675 71.8115 119.991 71.75 120.29 71.627C120.589 71.5039 120.847 71.3281 121.063 71.0996L122.619 72.6992C122.379 73.0039 122.083 73.2646 121.731 73.4814C121.38 73.6924 120.984 73.8535 120.545 73.9648C120.105 74.0762 119.637 74.1318 119.139 74.1318ZM125.616 65.835H128.024V74H125.616V65.835ZM123.103 64.877H130.538V67.1973H123.103V64.877ZM138.114 73.9912V67.9531L138.325 68.1816L134.643 73.9912H132.56V64.877H134.862V71.0645L134.651 70.8359L138.352 64.877H140.417V73.9912H138.114Z" fill="black"/>
<path d="M14.8726 70.086L14.8791 70.0906C19.4416 73.3707 24.7576 75 30.7864 75C34.0814 75 37.3263 74.2477 40.513 72.7601L40.5218 72.7559C43.4933 71.3332 46.231 69.331 48.7368 66.7632C51.2361 69.3245 53.94 71.2937 56.8512 72.6528C60.0411 74.1419 63.3226 74.8927 66.6872 74.8927C72.7107 74.8927 77.9904 73.302 82.4827 70.0923L82.485 70.0906C87.0401 66.8159 90.5042 62.1812 92.8986 56.2396C93.5911 54.521 94.1822 52.7166 94.6726 50.827C98.436 53.1685 102.601 54.4767 107.15 54.7524C111.951 55.0767 116.752 54.1697 121.541 52.0565C126.466 49.8839 130.464 46.8688 133.507 43.0022L133.511 42.9964C136.48 39.1668 138.258 34.9531 138.824 30.3676C139.391 25.7653 138.586 21.2051 136.438 16.7071L136.435 16.7003L136.431 16.6936C134.224 12.2439 131.195 8.62041 127.347 5.84252L127.338 5.83621L127.329 5.83009C123.435 3.14472 119.066 1.60645 114.241 1.21435V1.21432L114.234 1.21378C109.327 0.851145 104.419 1.80523 99.5209 4.04661C95.79 5.75322 92.6189 7.92086 90.0222 10.5547C89.2177 9.27015 88.3357 8.06465 87.3756 6.93897C84.2838 3.15437 80.398 1.2146 75.7719 1.2146C72.5018 1.2146 69.628 2.43798 67.1912 4.82689L67.1853 4.83263L67.1796 4.83846C64.7902 7.25888 63.6076 10.3084 63.6076 13.9106C63.6076 15.4263 63.8008 17.0047 64.1807 18.6431L64.187 18.6703L64.1948 18.6971C64.6349 20.2071 65.33 22.5024 66.2789 25.5793L66.2831 25.593L66.2877 25.6066C67.3777 28.8123 68.1703 31.4289 68.6715 33.4641C69.1636 35.4627 69.4086 37.457 69.4086 39.4486C69.4086 42.1724 69.0116 44.0797 68.3325 45.2901L68.328 45.2982L68.3236 45.3064C68.0211 45.8699 67.6804 46.2378 67.3234 46.4671C66.9719 46.6929 66.5525 46.8182 66.0305 46.8182C65.194 46.8182 64.5186 46.6022 63.9591 46.2008C63.3946 45.7959 62.8857 45.1569 62.4657 44.2132C61.6696 42.1822 61.2294 38.6341 61.2294 33.4396V27.9672C61.2294 23.9245 60.9721 20.4633 60.4474 17.5958C59.9071 14.5711 58.7 12.0257 56.7982 10.006C54.7998 7.8836 51.906 6.90163 48.299 6.90163C45.8806 6.90163 43.7847 7.35285 42.0639 8.31683C40.3312 9.28751 39.0406 10.7441 38.1932 12.6412C36.5791 16.1849 35.8063 20.8863 35.8063 26.6796V26.687L35.8064 26.6944L35.9158 34.0907C35.9154 39.0278 35.5052 42.2321 34.7936 43.881L34.7897 43.8902L34.7859 43.8994C34.4763 44.6583 34.0804 45.1568 33.6332 45.47C33.19 45.7803 32.6237 45.9598 31.8809 45.9598C30.9114 45.9598 30.0254 45.4882 29.2118 44.2611C28.4298 43.0817 27.9555 41.0384 27.9555 37.9463C27.9555 35.8915 28.2349 33.7571 28.8001 31.5407L28.8001 31.5407L28.8019 31.5336C29.3755 29.2139 30.2038 26.5284 31.2907 23.4738L31.2951 23.4614L31.2992 23.4489C31.8864 21.6498 32.4013 19.9198 32.8435 18.2592C33.3612 16.5166 33.6471 15.0532 33.6471 13.9106C33.6471 10.3184 32.5082 7.24402 30.2072 4.75486C27.8955 2.25415 24.9628 1 21.4828 1C17.1831 1 13.4516 3.00904 10.3114 6.83833L10.3099 6.84019C7.29597 10.5335 4.97911 15.0535 3.34268 20.3768L3.3426 20.3768L3.33899 20.3891C1.7847 25.6859 1 30.6816 1 35.3711C1 43.336 2.18146 50.3001 4.575 56.2396C6.96765 62.177 10.3925 66.8105 14.8726 70.086ZM107.175 32.0617L107.164 32.0572L107.153 32.053C105.465 31.4253 104.286 30.3363 103.561 28.757C102.836 27.1771 102.772 25.5568 103.389 23.8365C104.004 22.1204 105.069 20.9642 106.599 20.2892C108.13 19.6138 109.728 19.5969 111.459 20.2882C113.193 20.9811 114.393 22.1099 115.118 23.6908C115.843 25.2693 115.89 26.8477 115.254 28.4903L115.25 28.5018L115.246 28.5135C114.63 30.2295 113.565 31.3858 112.035 32.0607C110.504 32.7362 108.906 32.753 107.175 32.0617Z" stroke="black" stroke-width="2"/>
</svg>
