<svg width="29" height="29" viewBox="0 0 29 29" fill="none" xmlns="http://www.w3.org/2000/svg">
<path d="M9.05578 24.1549H11.1405V14.7813C11.7428 14.5962 12.2408 14.2664 12.6346 13.7919C13.0284 13.3174 13.2253 12.7446 13.2253 12.0734V6.79642C13.2253 6.61126 13.1558 6.44925 13.0168 6.31038C12.8778 6.17151 12.7157 6.10208 12.5304 6.10208C12.345 6.10208 12.1829 6.17151 12.0439 6.31038C11.9049 6.44925 11.8354 6.61126 11.8354 6.79642V10.2681H10.7931V6.79642C10.7931 6.61126 10.7236 6.44925 10.5846 6.31038C10.4456 6.17151 10.2835 6.10208 10.0982 6.10208C9.91284 6.10208 9.75069 6.17151 9.61171 6.31038C9.47273 6.44925 9.40324 6.61126 9.40324 6.79642V10.2681H8.36086V6.79642C8.36086 6.61126 8.29137 6.44925 8.15239 6.31038C8.01341 6.17151 7.85126 6.10208 7.66595 6.10208C7.48064 6.10208 7.31849 6.17151 7.17951 6.31038C7.04053 6.44925 6.97103 6.61126 6.97103 6.79642V12.0734C6.97103 12.7446 7.16793 13.3174 7.56171 13.7919C7.9555 14.2664 8.45352 14.5962 9.05578 14.7813V24.1549ZM17.3948 24.1549H19.4795V15.3368C20.2439 14.9665 20.8404 14.3763 21.2689 13.5662C21.6974 12.7562 21.9117 11.8072 21.9117 10.7194C21.9117 9.40019 21.5816 8.30082 20.9215 7.42133C20.2613 6.54183 19.4332 6.10208 18.4371 6.10208C17.4411 6.10208 16.613 6.54183 15.9528 7.42133C15.2926 8.30082 14.9626 9.40019 14.9626 10.7194C14.9626 11.8072 15.1768 12.7562 15.6054 13.5662C16.0339 14.3763 16.6304 14.9665 17.3948 15.3368V24.1549ZM3.49646 28.3209C2.73205 28.3209 2.07767 28.049 1.53332 27.5051C0.988972 26.9612 0.716797 26.3074 0.716797 25.5436V3.32472C0.716797 2.56095 0.988972 1.90711 1.53332 1.36321C2.07767 0.819313 2.73205 0.547363 3.49646 0.547363H25.7337C26.4981 0.547363 27.1525 0.819313 27.6969 1.36321C28.2412 1.90711 28.5134 2.56095 28.5134 3.32472V25.5436C28.5134 26.3074 28.2412 26.9612 27.6969 27.5051C27.1525 28.049 26.4981 28.3209 25.7337 28.3209H3.49646ZM3.49646 25.5436H25.7337V3.32472H3.49646V25.5436Z" fill="#FFB000"/>
</svg>
