<svg width="30" height="30" viewBox="0 0 30 30" fill="none" xmlns="http://www.w3.org/2000/svg">
<path fill-rule="evenodd" clip-rule="evenodd" d="M15 21C16.9594 21 18.6263 22.2523 19.244 24.0001L28.5 24C29.3284 24 30 24.6716 30 25.5C30 26.3284 29.3284 27 28.5 27L19.2435 27.0014C18.6253 28.7484 16.9588 30 15 30C13.0412 30 11.3747 28.7484 10.7565 27.0014L1.5 27C0.671573 27 0 26.3284 0 25.5C0 24.6716 0.671573 24 1.5 24L10.756 24.0001C11.3737 22.2523 13.0406 21 15 21ZM15 24C14.1716 24 13.5 24.6716 13.5 25.5C13.5 26.3284 14.1716 27 15 27C15.8284 27 16.5 26.3284 16.5 25.5C16.5 24.6716 15.8284 24 15 24ZM25.5 10.5C27.9853 10.5 30 12.5147 30 15C30 17.4853 27.9853 19.5 25.5 19.5C23.5412 19.5 21.8747 18.2484 21.2565 16.5014L1.5 16.5C0.671573 16.5 0 15.8284 0 15C0 14.1716 0.671573 13.5 1.5 13.5L21.256 13.5001C21.8737 11.7523 23.5406 10.5 25.5 10.5ZM25.5 13.5C24.6716 13.5 24 14.1716 24 15C24 15.8284 24.6716 16.5 25.5 16.5C26.3284 16.5 27 15.8284 27 15C27 14.1716 26.3284 13.5 25.5 13.5ZM4.5 0C6.4677 0 8.14042 1.26293 8.7518 3.02243C8.83198 3.00704 8.91517 3 9 3H28.5C29.3284 3 30 3.67157 30 4.5C30 5.32843 29.3284 6 28.5 6H9C8.91517 6 8.83198 5.99296 8.75099 5.97943C8.14042 7.73707 6.4677 9 4.5 9C2.01472 9 0 6.98528 0 4.5C0 2.01472 2.01472 0 4.5 0ZM4.5 3C3.67157 3 3 3.67157 3 4.5C3 5.32843 3.67157 6 4.5 6C5.32843 6 6 5.32843 6 4.5C6 3.67157 5.32843 3 4.5 3Z" fill="black"/>
</svg>
